<?xml version="1.0" standalone="no"?>
<!DOCTYPE svg PUBLIC "-//W3C//DTD SVG 20010904//EN"
 "http://www.w3.org/TR/2001/REC-SVG-20010904/DTD/svg10.dtd">
<svg version="1.0" xmlns="http://www.w3.org/2000/svg"
 width="800.000000pt" height="800.000000pt" viewBox="0 0 800.000000 800.000000"
 preserveAspectRatio="xMidYMid meet">
<metadata>
Created by potrace 1.11, written by Peter Selinger 2001-2013
</metadata>
<g transform="translate(0.000000,800.000000) scale(0.100000,-0.100000)"
fill="#000000" stroke="none">
<path d="M2735 5869 c-206 -30 -407 -113 -567 -236 -184 -141 -290 -368 -275
-589 11 -154 64 -261 197 -394 113 -112 213 -179 520 -345 325 -176 403 -227
521 -345 76 -75 104 -111 133 -170 60 -125 70 -250 30 -403 -52 -202 -224
-389 -436 -474 -184 -75 -453 -64 -635 24 -143 70 -260 230 -271 371 -8 123
31 167 165 182 61 6 81 13 95 30 54 67 -30 191 -151 227 -67 19 -170 13 -254
-16 -186 -64 -312 -275 -292 -486 27 -272 194 -439 541 -540 147 -43 271 -58
474 -58 153 -1 202 3 287 21 125 27 220 60 338 119 405 202 605 498 605 892 0
187 -47 313 -170 462 -137 165 -280 263 -685 467 -288 146 -446 268 -504 391
-74 156 -40 317 96 462 119 125 238 180 397 181 187 1 302 -45 361 -146 37
-64 45 -123 28 -213 -8 -42 -12 -87 -9 -99 9 -33 56 -54 121 -54 71 0 115 20
165 77 52 60 74 128 74 228 0 105 -34 183 -109 254 -88 84 -263 157 -429 180
-90 13 -274 13 -361 0z"/>
<path d="M4805 5606 c-70 -31 -147 -145 -191 -281 l-22 -69 -128 -41 c-227
-73 -350 -142 -462 -259 -115 -119 -173 -297 -138 -419 20 -67 53 -95 124
-104 63 -7 114 10 162 53 50 45 75 107 99 241 10 61 25 122 32 134 40 78 126
149 229 189 48 19 52 19 45 3 -3 -10 -11 -209 -16 -443 -5 -234 -13 -510 -19
-615 -46 -886 -49 -1119 -17 -1233 28 -101 93 -138 264 -149 l91 -6 16 31 c27
52 36 200 36 612 0 480 15 1078 35 1415 8 138 17 301 21 363 l6 112 108 0
c305 0 623 -128 821 -331 121 -124 180 -275 180 -459 0 -188 -62 -358 -179
-492 l-32 -36 -83 35 c-124 52 -224 73 -352 73 -167 0 -287 -39 -353 -115 -38
-42 -47 -72 -38 -126 21 -129 120 -198 316 -220 125 -15 237 -2 358 41 48 17
94 33 102 36 30 10 127 -177 154 -298 56 -244 7 -440 -152 -610 -161 -171
-310 -245 -515 -255 -134 -7 -197 3 -432 72 -99 29 -204 59 -234 65 -101 23
-253 -9 -280 -58 -6 -12 -11 -41 -11 -67 0 -164 167 -217 690 -218 276 -1 362
8 535 58 179 52 318 124 464 241 141 114 231 241 281 399 31 98 39 312 16 405
-35 137 -123 279 -235 377 l-49 42 108 108 c214 216 314 420 327 668 10 210
-39 328 -206 495 -164 163 -304 240 -556 305 -196 50 -267 58 -519 54 l-226
-4 -4 40 c-3 22 -7 71 -10 109 -3 38 -14 85 -24 105 -17 32 -23 36 -63 38 -24
2 -57 -3 -74 -11z m713 -1815 c62 -19 194 -99 186 -112 -2 -4 -28 -16 -57 -25
-106 -37 -305 -14 -356 40 -31 32 -26 85 9 103 37 19 149 16 218 -6z"/>
</g>
</svg>
